<svg id="logo" xmlns="http://www.w3.org/2000/svg" viewBox="0 0 291.87 66.01"><defs><style>.cls-1,.cls-2{fill:#fff;}.cls-1{fill-rule:evenodd;}</style></defs><title>logo</title><path id="icon" class="cls-1" d="M33,4.63a28.27,28.27,0,0,1,19.2,7.48,4.66,4.66,0,0,0-5.05,4.78c-.21,6.81,8.15,8.26,3.64,22L47.08,50.2,36.93,20.31c-.16-.46,0-.72.59-.72h2.87a.28.28,0,0,0,.27-.29V17.61a.28.28,0,0,0-.27-.29q-8.14.36-16.2,0a.28.28,0,0,0-.27.29v1.7a.28.28,0,0,0,.27.28h2.89c.64,0,.82.21,1,.63l4.17,11.4L26,50.55,15.64,20.19c-.13-.38,0-.6.39-.6h3.29a.28.28,0,0,0,.27-.28v-1.7a.28.28,0,0,0-.27-.29c-3.45.19-6.91.22-10.13.26A28.32,28.32,0,0,1,33,4.63h0ZM58,19.49A28.4,28.4,0,0,1,46.63,57.91l8.85-25.07C56.85,29,58.13,23.72,58,19.49ZM42.51,59.76a28.53,28.53,0,0,1-17.76.41L33.5,35.11l9,24.65Zm-21.65-1.1A28.4,28.4,0,0,1,7.18,21.24L20.86,58.66ZM33,2A31,31,0,1,1,2,33,31,31,0,0,1,33,2Zm0-2A33,33,0,1,1,0,33,33,33,0,0,1,33,0Z"/><path id="text" class="cls-2" d="M105.53,26.16,99.41,43.25H95.84L92.26,33.1,88.61,43.25H85L78.94,26.16h4.58L87,36.94l3.81-10.78h3.08l3.67,11,3.67-11Zm2.69,16.51a5.41,5.41,0,0,1-2.33-2.21,7.38,7.38,0,0,1,0-6.76,5.35,5.35,0,0,1,2.33-2.21,7.77,7.77,0,0,1,3.55-.77,7.55,7.55,0,0,1,3.52.78,5.54,5.54,0,0,1,2.31,2.21,7.33,7.33,0,0,1,0,6.74,5.54,5.54,0,0,1-2.31,2.21,7.55,7.55,0,0,1-3.52.78A7.77,7.77,0,0,1,108.22,42.67Zm5.9-5.59a3.73,3.73,0,0,0-.59-2.34,2.08,2.08,0,0,0-1.76-.76,2.14,2.14,0,0,0-1.8.76,3.73,3.73,0,0,0-.6,2.34,3.77,3.77,0,0,0,.6,2.36,2.14,2.14,0,0,0,1.8.76C113.34,40.2,114.12,39.16,114.12,37.08Zm15.41-6v4a4.71,4.71,0,0,0-2-.48c-1.83,0-2.74.87-2.74,2.62v6.12h-4.34V34.56a30.13,30.13,0,0,0-.19-3.5h4.08l.26,2A3.39,3.39,0,0,1,126,31.37a4,4,0,0,1,2.16-.6A3,3,0,0,1,129.53,31Zm13.85-5.45V43.25h-4.27V41.59A3.66,3.66,0,0,1,137.57,43a5.08,5.08,0,0,1-2.21.49,5,5,0,0,1-2.78-.8,5.38,5.38,0,0,1-1.91-2.26A7.71,7.71,0,0,1,130,37a7.56,7.56,0,0,1,.68-3.31,5.21,5.21,0,0,1,1.91-2.22,5,5,0,0,1,2.78-.78,4.76,4.76,0,0,1,2.13.48A4,4,0,0,1,139,32.5V25.58Zm-4.9,13.82a3.7,3.7,0,0,0,.63-2.32,3.61,3.61,0,0,0-.64-2.27,2.13,2.13,0,0,0-1.76-.8,2.15,2.15,0,0,0-1.8.78,3.49,3.49,0,0,0-.63,2.24,3.72,3.72,0,0,0,.64,2.34,2.35,2.35,0,0,0,3.56,0Zm11.39,3a7.48,7.48,0,0,1-3.05-3.08,9.65,9.65,0,0,1-1.07-4.61,9.49,9.49,0,0,1,1.07-4.57A7.46,7.46,0,0,1,149.87,27a9.45,9.45,0,0,1,4.64-1.1,10.53,10.53,0,0,1,3.26.51,6.91,6.91,0,0,1,2.53,1.36L158.93,31a7.25,7.25,0,0,0-4.32-1.51,3.92,3.92,0,0,0-3.17,1.3,5.94,5.94,0,0,0-1.1,3.88,6,6,0,0,0,1.1,3.91,3.9,3.9,0,0,0,3.17,1.32,7.25,7.25,0,0,0,4.32-1.51l1.37,3.19A6.92,6.92,0,0,1,157.77,43a10.83,10.83,0,0,1-3.26.5A9.44,9.44,0,0,1,149.87,42.37ZM175,31.06V43.25h-4.27V41.59A3.6,3.6,0,0,1,169.2,43a5.08,5.08,0,0,1-2.21.49,5,5,0,0,1-4.69-3,7.69,7.69,0,0,1-.68-3.3,7.83,7.83,0,0,1,.69-3.37,5.58,5.58,0,0,1,1.92-2.27,4.84,4.84,0,0,1,2.76-.82,4.75,4.75,0,0,1,2.2.51,4,4,0,0,1,1.55,1.39V31.06Zm-4.9,8.35a3.6,3.6,0,0,0,.63-2.28,3.7,3.7,0,0,0-.63-2.32,2.34,2.34,0,0,0-3.55,0,3.72,3.72,0,0,0-.65,2.34,3.49,3.49,0,0,0,.63,2.24,2.15,2.15,0,0,0,1.8.78A2.1,2.1,0,0,0,170.11,39.41ZM196.26,32a6.34,6.34,0,0,1,1,4v7.27h-4.34V36.1a2.83,2.83,0,0,0-.33-1.56,1.21,1.21,0,0,0-1.09-.48,1.64,1.64,0,0,0-1.41.67,3.08,3.08,0,0,0-.51,1.89v6.63h-4.34V36.1a2.73,2.73,0,0,0-.34-1.56,1.22,1.22,0,0,0-1.08-.48,1.62,1.62,0,0,0-1.4.67,3.15,3.15,0,0,0-.49,1.89v6.63H177.6V34.56a28.07,28.07,0,0,0-.19-3.5h4.08l.22,1.7a3.68,3.68,0,0,1,1.54-1.51,4.88,4.88,0,0,1,2.3-.53,3.52,3.52,0,0,1,3.55,2.21,4.77,4.77,0,0,1,4-2.21A3.72,3.72,0,0,1,196.26,32Zm14.37-.48a5.58,5.58,0,0,1,1.92,2.27,7.83,7.83,0,0,1,.69,3.37,7.69,7.69,0,0,1-.68,3.3,5.12,5.12,0,0,1-1.91,2.19,5.2,5.2,0,0,1-2.81.77,5,5,0,0,1-2.18-.47,3.47,3.47,0,0,1-1.51-1.31v6.77H199.8V34.56a28.07,28.07,0,0,0-.19-3.5h4.08l.24,1.89a3.56,3.56,0,0,1,1.51-1.62,4.71,4.71,0,0,1,2.4-.61A4.89,4.89,0,0,1,210.63,31.54Zm-2.33,7.89a3.59,3.59,0,0,0,.6-2.25,3.93,3.93,0,0,0-.61-2.34,2.05,2.05,0,0,0-1.77-.83,2.16,2.16,0,0,0-1.8.79,3.74,3.74,0,0,0-.62,2.33,3.66,3.66,0,0,0,.62,2.28,2.16,2.16,0,0,0,1.8.79A2.12,2.12,0,0,0,208.3,39.43Zm18-9.62h-5.09V26.16H236v3.65h-5.09V43.25h-4.56ZM244.66,31v4a4.71,4.71,0,0,0-2-.48c-1.83,0-2.74.87-2.74,2.62v6.12h-4.34V34.56a27.92,27.92,0,0,0-.2-3.5h4.08l.27,2a3.39,3.39,0,0,1,1.39-1.73,4,4,0,0,1,2.16-.6A3,3,0,0,1,244.66,31Zm13.85,0V43.25h-4.28V41.59A3.57,3.57,0,0,1,252.7,43a5.12,5.12,0,0,1-6.9-2.47,7.55,7.55,0,0,1-.69-3.3,7.84,7.84,0,0,1,.7-3.37,5.43,5.43,0,0,1,1.92-2.27,4.84,4.84,0,0,1,2.76-.82,4.78,4.78,0,0,1,2.2.51,3.93,3.93,0,0,1,1.54,1.39V31.06Zm-4.9,8.35a3.6,3.6,0,0,0,.62-2.28,3.71,3.71,0,0,0-.62-2.32,2.14,2.14,0,0,0-1.78-.8,2.1,2.1,0,0,0-1.77.83,3.72,3.72,0,0,0-.65,2.34,3.56,3.56,0,0,0,.62,2.24,2.18,2.18,0,0,0,1.8.78A2.13,2.13,0,0,0,253.61,39.41Zm20.09-8.33-5.43,12.17H264.7l-5.35-12.17h4.51l2.73,7,2.84-7Zm11.8,6.5h-7.65a2.51,2.51,0,0,0,2.86,2.67,5.83,5.83,0,0,0,1.82-.3,6.3,6.3,0,0,0,1.66-.83l1.1,2.88a7.1,7.1,0,0,1-2.21,1.06,9.28,9.28,0,0,1-2.59.38,8,8,0,0,1-3.62-.77,5.44,5.44,0,0,1-2.36-2.19,6.76,6.76,0,0,1-.81-3.38,6.87,6.87,0,0,1,.78-3.3,5.73,5.73,0,0,1,2.16-2.26,6,6,0,0,1,3.15-.82,5.86,5.86,0,0,1,3,.77,5.1,5.1,0,0,1,2,2.19A7.59,7.59,0,0,1,285.5,37Zm-7.6-2h3.89c-.16-1.25-.79-1.87-1.88-1.87S278.17,34.32,277.9,35.57Zm9.62-10h4.35V43.25h-4.35Z"/></svg>